<!DOCTYPE svg PUBLIC "-//W3C//DTD SVG 1.1//EN" "http://www.w3.org/Graphics/SVG/1.1/DTD/svg11.dtd">
<!-- Uploaded to: SVG Repo, www.svgrepo.com, Transformed by: SVG Repo Mixer Tools -->
<svg width="800px" height="800px" viewBox="0 0 48 48" xmlns="http://www.w3.org/2000/svg" fill="#000000">
<g id="SVGRepo_bgCarrier" stroke-width="0"/>
<g id="SVGRepo_tracerCarrier" stroke-linecap="round" stroke-linejoin="round"/>
<g id="SVGRepo_iconCarrier">
<defs>
<style>.a,.b{fill:none;stroke:#FF4893;stroke-linecap:round;stroke-linejoin:round;}.a{fill-rule:evenodd;}</style>
</defs>
<path class="a" d="M40.2,12.59H15.88L4.5,8.1V36.54a3.32,3.32,0,0,0,3.3,3.32H40.2a3.32,3.32,0,0,0,3.3-3.32V15.89A3.3,3.3,0,0,0,40.2,12.59Zm-24.89,18a3.12,3.12,0,1,1-3.11-3.13,3.13,3.13,0,0,1,3.11,3.13Zm0-9a3.12,3.12,0,1,1-3.11-3.13,3.13,3.13,0,0,1,3.11,3.13Z"/>
<line class="b" x1="17.92" y1="30.52" x2="38.74" y2="30.52"/>
<line class="b" x1="17.92" y1="21.56" x2="38.74" y2="21.56"/>
</g>
</svg>